<svg width="40" height="40" viewBox="0 0 40 40" fill="none" xmlns="http://www.w3.org/2000/svg">
<g style="mix-blend-mode:luminosity" clip-path="url(#clip0_7_520)">
<path d="M34.6961 15.5419C34.6961 15.1846 34.406 14.8945 34.0487 14.8945H5.95104C5.59379 14.8945 5.30371 15.1846 5.30371 15.5419V16.1312C5.30371 16.4884 5.59379 16.7785 5.95104 16.7785H34.0487C34.406 16.7785 34.6961 16.4884 34.6961 16.1312V15.5419Z" fill="#0093C9"/>
<path d="M24.3816 22.9891L19.9419 18.3479L15.5542 22.9158L11.1694 18.3479L5.85951 23.8899C5.61523 24.1464 5.62439 24.5525 5.87783 24.7968L6.3389 25.2365C6.59233 25.4807 7.00149 25.4716 7.24271 25.2181L11.1725 21.1143L15.0839 25.1968C15.1847 25.3036 15.316 25.3647 15.4503 25.3861C15.4534 25.3861 15.4565 25.3861 15.4626 25.3861C15.49 25.3891 15.5236 25.3922 15.5542 25.3922C15.5847 25.3922 15.6152 25.3891 15.6458 25.3861C15.6488 25.3861 15.6549 25.3861 15.6549 25.3861C15.7893 25.3647 15.9206 25.3036 16.0244 25.1968L19.9419 21.1143L23.9023 25.2609C24.0305 25.3952 24.2168 25.4563 24.3939 25.4563C24.5893 25.4563 24.7755 25.3555 24.8732 25.2517L28.8305 21.1143L32.7572 25.2181C33.0015 25.4716 33.4076 25.4807 33.6641 25.2365L34.1221 24.7968C34.3786 24.5525 34.3877 24.1464 34.1435 23.8899L28.8305 18.3479L24.3816 22.9891Z" fill="#0093C9"/>
<path d="M10.7784 13.3281H11.4166C11.7769 13.3281 12.067 13.041 12.067 12.6838V9.62731C12.067 9.27006 11.7769 8.97998 11.4166 8.97998H10.7784C10.4212 8.97998 10.1311 9.27006 10.1311 9.62731V9.94487V12.3662V12.6838C10.1311 13.041 10.4212 13.3281 10.7784 13.3281Z" fill="#0093C9"/>
<path d="M20.9616 9.62731C20.9616 9.27006 20.6716 8.97998 20.3174 8.97998H19.6761C19.3189 8.97998 19.0288 9.27006 19.0288 9.62731V12.6838C19.0288 13.041 19.3189 13.3281 19.6761 13.3281H20.3174C20.6746 13.3281 20.9616 13.041 20.9616 12.6838V9.62731Z" fill="#0093C9"/>
<path d="M28.5831 13.3281H29.2213C29.5785 13.3281 29.8686 13.041 29.8686 12.6838V9.62731C29.8686 9.27006 29.5816 8.97998 29.2213 8.97998H28.5831C28.2259 8.97998 27.9358 9.27006 27.9358 9.62731V12.6838C27.9358 13.041 28.2259 13.3281 28.5831 13.3281Z" fill="#0093C9"/>
<path d="M20.3144 32.2991C20.6717 32.2991 20.9587 32.009 20.9587 31.6548V26.6625C20.9587 26.3052 20.6686 26.0151 20.3144 26.0151H19.6732C19.316 26.0151 19.0259 26.3052 19.0259 26.6625V31.6518C19.0259 32.009 19.316 32.2961 19.6732 32.2961H20.3144V32.2991Z" fill="#0093C9"/>
<path d="M29.2213 32.2991C29.5785 32.2991 29.8686 32.009 29.8686 31.6548V26.6625C29.8686 26.3052 29.5816 26.0151 29.2213 26.0151H28.5831C28.2259 26.0151 27.9358 26.3052 27.9358 26.6625V31.6518C27.9358 32.009 28.2259 32.2961 28.5831 32.2961H29.2213V32.2991Z" fill="#0093C9"/>
<path d="M19.9969 0.152588C9.0564 0.152588 0.152588 9.05641 0.152588 20.003C0.152588 30.9465 9.0564 39.8472 19.9969 39.8472C30.9404 39.8472 39.8472 30.9465 39.8472 20.003C39.8472 9.05641 30.9434 0.152588 19.9969 0.152588ZM19.9969 38.1343C9.99992 38.1343 1.86557 29.9999 1.86557 19.9999C1.86557 9.99992 9.99992 1.86251 19.9969 1.86251C29.9969 1.86251 38.1343 9.99992 38.1343 19.9999C38.1373 29.9999 29.9999 38.1343 19.9969 38.1343Z" fill="#0093C9"/>
</g>
<defs>
<clipPath id="clip0_7_520">
<rect width="40" height="40" fill="white"/>
</clipPath>
</defs>
</svg>
