<svg width="40" height="40" viewBox="0 0 40 40" fill="none" xmlns="http://www.w3.org/2000/svg">
<g style="mix-blend-mode:luminosity" clip-path="url(#clip0_7_547)">
<path d="M26.4336 0.668701V9.25191C26.4336 9.25191 22.7145 9.89313 20 13.5389V3.92672C20 3.92672 22.0489 1.51145 26.4336 0.668701Z" fill="#BA6498"/>
<path d="M13.5664 0.699219V9.28243C13.5664 9.28243 17.2855 9.89006 20 13.5359V3.95723C20 3.95723 17.9511 1.54502 13.5664 0.699219Z" fill="#9F5482"/>
<path d="M26.4335 9.25186L33.89 4.98315C33.89 4.98315 35.1725 9.63048 33.9511 11.9541L25.8931 16.7938C25.8931 16.7938 27.9908 14.3053 26.4335 9.25186Z" fill="#B74F4E"/>
<path d="M39.8473 15.9358C39.8473 15.9358 37.6915 13.0991 33.9511 11.9541L25.8931 16.7938C25.8931 16.7938 31.2641 16.8915 32.3389 19.9785L39.8473 15.9358Z" fill="#D8615E"/>
<path d="M25.3708 23.1968C25.3708 23.1968 30.9037 24.064 32.3418 19.9785L39.8472 24.3236C39.8472 24.3236 36.4396 28.5068 33.9418 28.0335L25.3708 23.1968Z" fill="#C59941"/>
<path d="M26.4304 30.7174C26.4304 30.7174 28.4487 26.6777 25.3708 23.1968L33.9418 28.0334C33.9418 28.0334 35.3983 32.7418 33.435 35.0044L26.4304 30.7174Z" fill="#EBB751"/>
<path d="M19.9998 26.3755C19.9998 26.3755 22.2013 31.7098 26.4303 30.7175V39.2915C26.4303 39.2915 22.3417 39.4106 19.9998 36.061V26.3755Z" fill="#89A550"/>
<path d="M13.5815 39.2885V31.1724C13.5815 31.1724 18.2991 31.0808 19.9999 26.3755V36.061C19.9999 36.061 17.1144 39.774 13.5815 39.2885Z" fill="#A5C561"/>
<path d="M14.6289 23.1968C14.6289 23.1968 11.9235 25.1968 13.5816 31.1723L6.67164 35.0044C6.67164 35.0044 4.65026 32.6349 6.12813 28.0731L14.6289 23.1968Z" fill="#2F6394"/>
<path d="M7.65793 19.9785C7.65793 19.9785 8.67473 23.5785 14.6289 23.1968L6.13121 28.0701C6.13121 28.0701 2.65335 28.3938 0.152588 24.3205L7.65793 19.9785Z" fill="#3C72AA"/>
<path d="M14.6289 17.2825C14.6289 17.2825 10.7877 16.0154 7.65793 19.9787L0.152588 15.6917C0.152588 15.6917 1.17244 12.9345 6.03961 12.4734L14.6289 17.2825Z" fill="#69427A"/>
<path d="M6.62293 4.9314C6.62293 4.9314 4.61071 8.85506 6.03972 12.4734L14.629 17.2825C14.629 17.2825 11.8382 13.536 13.5634 9.28254L6.62293 4.9314Z" fill="#805394"/>
</g>
<defs>
<clipPath id="clip0_7_547">
<rect width="40" height="40" fill="white"/>
</clipPath>
</defs>
</svg>
