<svg width="40" height="40" viewBox="0 0 40 40" fill="none" xmlns="http://www.w3.org/2000/svg">
<g style="mix-blend-mode:luminosity">
<path d="M20.5222 11.6763L13.084 15.9358V24.4183L20.5222 28.577L27.9573 24.3847V15.9694L20.5222 11.6763Z" fill="#666A72"/>
<path d="M3.70679 10.1068L9.39839 14.2625L20.7785 7.72511L31.6427 13.9694V26.4121L20.3847 32.8732V39.8198C20.3847 39.8198 21.0961 39.8228 21.8137 39.545L38.2045 30.2228V10.232L20.8121 0.152588L5.07473 9.16633C5.07473 9.16633 4.05488 9.65488 3.70679 10.1068Z" fill="#666A72"/>
<path d="M9.39533 14.2624L9.40143 26.4212L20.3816 32.8731V39.8197C20.3816 39.8197 19.8075 39.9449 18.803 39.4991L2.8396 30.3265V12.2624C2.8396 12.2624 2.87013 10.9861 3.70678 10.1067L9.39533 14.2624Z" fill="#E8AC2B"/>
</g>
</svg>
