<svg width="200" height="200" viewBox="0 0 200 200" fill="none" xmlns="http://www.w3.org/2000/svg">
<g clip-path="url(#clip0_66_104)">
<circle cx="99.7966" cy="100.136" r="96.5" stroke="#2C2C2C" stroke-width="7"/>
<circle cx="99.7966" cy="100.136" r="89" stroke="#2C2C2C" stroke-width="2"/>
<circle cx="99.7966" cy="100.136" r="63" stroke="#2C2C2C" stroke-width="2"/>
<path d="M163.789 54.0437L164.411 53.5892C164.985 53.1693 165.131 52.767 164.85 52.3823C164.72 52.2047 164.55 52.1153 164.341 52.1143C164.131 52.1132 163.899 52.2057 163.644 52.3918C163.567 52.4481 163.489 52.5146 163.409 52.5914C163.333 52.6741 163.266 52.7818 163.209 52.9146C163.155 53.0269 163.1 53.1758 163.045 53.3614C162.996 53.5427 162.955 53.7542 162.923 53.9958C162.898 54.1231 162.876 54.2615 162.858 54.4109C162.83 54.5587 162.808 54.7205 162.791 54.8963C162.735 55.428 162.665 55.9288 162.581 56.3986C162.502 56.8744 162.419 57.276 162.331 57.6035C162.232 57.9397 162.115 58.2338 161.982 58.4859C161.848 58.7381 161.689 58.9679 161.505 59.1754C161.41 59.2813 161.305 59.3805 161.191 59.473C161.081 59.5714 160.961 59.6682 160.831 59.7635C160.476 60.0232 160.119 60.2249 159.761 60.3687C159.409 60.5082 159.056 60.5846 158.702 60.5979C158.369 60.6144 158.034 60.5598 157.696 60.4339C157.364 60.314 157.058 60.138 156.779 59.9058C156.467 59.6526 156.178 59.3455 155.914 58.9844C155.382 58.2563 155.106 57.5496 155.086 56.8644C155.065 56.1894 155.305 55.555 155.807 54.9612C156.047 54.6678 156.359 54.3805 156.744 54.0991L157.676 53.4174L159.104 55.3708L158.163 56.0591C157.82 56.3101 157.605 56.5759 157.52 56.8565C157.426 57.1253 157.478 57.3958 157.677 57.6681C157.746 57.7628 157.825 57.8459 157.914 57.9174C158.009 57.9845 158.107 58.0261 158.21 58.042C158.302 58.0563 158.404 58.059 158.515 58.0501C158.633 58.0368 158.759 57.9988 158.895 57.9359C158.953 57.9028 159.013 57.8676 159.077 57.8303C159.146 57.7886 159.213 57.7439 159.279 57.6963C159.403 57.6054 159.503 57.5186 159.579 57.4359C159.661 57.3489 159.735 57.2398 159.803 57.1086C159.866 56.9715 159.915 56.8086 159.95 56.6198C159.988 56.4369 160.026 56.2276 160.063 55.9919C160.077 55.863 160.092 55.7209 160.105 55.5656C160.123 55.4162 160.141 55.2536 160.157 55.0778C160.211 54.5298 160.268 54.0428 160.329 53.6167C160.4 53.1922 160.489 52.8097 160.594 52.4693C160.693 52.1331 160.81 51.839 160.943 51.5868C161.087 51.3363 161.251 51.1073 161.436 50.8998C161.525 50.7982 161.624 50.6982 161.734 50.5998C161.848 50.5073 161.967 50.4156 162.092 50.3247C162.417 50.0866 162.743 49.8984 163.069 49.7601C163.405 49.6233 163.734 49.551 164.055 49.5432C164.681 49.5303 165.267 49.7471 165.812 50.1938C166.082 50.4141 166.345 50.6989 166.6 51.0482C167.085 51.7112 167.35 52.3532 167.395 52.9742C167.41 53.1812 167.381 53.4338 167.309 53.7322C167.236 54.0305 167.07 54.3431 166.809 54.67C166.595 54.9358 166.325 55.1877 165.999 55.4258L165.218 55.9972L163.789 54.0437ZM165.411 61.5989C165.014 61.8058 164.656 62.0548 164.336 62.3456C164.02 62.643 163.752 62.9855 163.532 63.3731C163.338 63.7143 163.204 64.0824 163.128 64.4773C163.057 64.8787 163.057 65.2756 163.129 65.6679C163.196 66.08 163.329 66.4779 163.529 66.8615C163.858 67.4921 164.294 67.9717 164.838 68.3001C165.378 68.6221 165.971 68.7758 166.617 68.7613C166.771 68.7554 166.928 68.7396 167.089 68.7138C167.255 68.6847 167.422 68.6474 167.589 68.6019L168.81 70.9424C168.217 71.1855 167.636 71.3235 167.065 71.3563C166.499 71.3956 165.94 71.3561 165.391 71.2377C164.235 70.9887 163.231 70.4288 162.38 69.5579C161.953 69.1192 161.591 68.617 161.296 68.0514C161.001 67.4858 160.79 66.8679 160.664 66.1976C160.541 65.5339 160.54 64.8271 160.662 64.0771C160.765 63.4193 160.977 62.7875 161.298 62.1817C161.625 61.5725 162.029 61.0309 162.51 60.5568C162.755 60.3131 163.02 60.0839 163.305 59.869C163.593 59.6607 163.903 59.47 164.234 59.297C164.911 58.9441 165.59 58.7093 166.274 58.5925C166.967 58.4789 167.641 58.4623 168.295 58.5428C169.015 58.6386 169.68 58.842 170.289 59.1529C170.904 59.4604 171.425 59.8171 171.852 60.223C172.092 60.4616 172.318 60.7201 172.53 60.9985C172.741 61.2769 172.93 61.5754 173.096 61.894C173.68 63.0122 173.913 64.1808 173.796 65.3997C173.738 65.9846 173.593 66.548 173.363 67.0899C173.14 67.6284 172.851 68.1139 172.498 68.5465C172.131 68.9858 171.689 69.3739 171.17 69.7109L169.949 67.3704C170.214 67.1657 170.441 66.9272 170.63 66.655C170.829 66.3859 170.98 66.1127 171.083 65.8354C171.183 65.5515 171.244 65.2553 171.265 64.9466C171.292 64.6345 171.272 64.3184 171.204 63.9981C171.123 63.6682 171.002 63.3505 170.843 63.0449C170.626 62.6288 170.362 62.2824 170.053 62.0057C169.749 61.7256 169.439 61.5112 169.121 61.3625C168.378 61.031 167.576 60.953 166.716 61.1286C166.497 61.1684 166.277 61.2297 166.055 61.3122C165.84 61.3914 165.625 61.4869 165.411 61.5989ZM176.085 77.9968C175.467 78.2069 174.895 78.2579 174.371 78.1497C174.122 78.1025 173.889 78.0192 173.67 77.9C173.453 77.7876 173.247 77.6254 173.051 77.4132C172.874 77.2102 172.725 76.978 172.605 76.7167L172.439 76.7733C172.524 77.0233 172.53 77.3038 172.458 77.615C172.381 77.9123 172.234 78.1753 172.017 78.4038C171.959 78.4621 171.899 78.5135 171.837 78.558C171.777 78.6093 171.716 78.6572 171.654 78.7017L167.097 81.6336L166.265 79.1862L171.011 75.9575L170.742 75.1659L165.503 76.947L164.671 74.4996L177.065 70.2859L178.304 73.931C178.417 74.2643 178.474 74.6014 178.473 74.9423C178.482 75.2877 178.432 75.6185 178.323 75.9345C178.206 76.253 178.048 76.5391 177.848 76.7931C177.65 77.054 177.401 77.2897 177.101 77.5003C176.791 77.7062 176.453 77.8717 176.085 77.9968ZM173.033 74.3869L173.228 74.9597C173.273 75.0917 173.333 75.2107 173.407 75.317C173.485 75.4301 173.579 75.5258 173.691 75.604C173.898 75.7349 174.15 75.7926 174.447 75.7769C174.574 75.7645 174.725 75.7288 174.898 75.6698C175.294 75.5353 175.572 75.3283 175.733 75.0491C175.901 74.7675 175.923 74.4462 175.8 74.0851L175.605 73.5123L173.033 74.3869ZM173.608 80.6348C174.324 80.5128 175.019 80.5096 175.693 80.6253C176.375 80.7397 177.025 80.9525 177.643 81.2636C178.253 81.5688 178.804 81.9622 179.295 82.4438C179.788 82.9326 180.197 83.4767 180.522 84.0758C180.685 84.3754 180.824 84.6902 180.94 85.0201C181.057 85.3572 181.145 85.7029 181.206 86.0571C181.33 86.7872 181.332 87.4937 181.21 88.1765C181.095 88.8581 180.892 89.4991 180.6 90.0993C180.25 90.7914 179.825 91.3771 179.327 91.8564C178.835 92.3344 178.331 92.7143 177.814 92.9959C177.507 93.1598 177.188 93.2996 176.858 93.4154C176.529 93.5311 176.186 93.6192 175.832 93.6796C175.124 93.8004 174.414 93.806 173.704 93.6965C172.995 93.5943 172.328 93.3918 171.703 93.0891C171.085 92.7779 170.522 92.3792 170.015 91.8928C169.517 91.4124 169.105 90.8762 168.781 90.2843C168.438 89.6659 168.206 89.0024 168.085 88.294C167.962 87.5711 167.96 86.8646 168.081 86.1746C168.201 85.4845 168.414 84.8381 168.721 84.2354C169.033 83.6242 169.426 83.07 169.899 82.5727C170.374 82.0827 170.935 81.6671 171.584 81.3259C171.89 81.162 172.212 81.0216 172.55 80.9046C172.894 80.7863 173.247 80.6964 173.608 80.6348ZM174.021 83.1867C173.58 83.2619 173.158 83.4045 172.755 83.6146C172.352 83.8247 172.008 84.0767 171.723 84.3707C171.406 84.6926 171.15 85.0414 170.953 85.417C170.764 85.7915 170.641 86.1807 170.583 86.5848C170.508 87.0143 170.507 87.4459 170.581 87.8796C170.655 88.3134 170.794 88.7174 170.999 89.0915C171.212 89.4645 171.472 89.792 171.781 90.0742C172.082 90.3576 172.423 90.5932 172.805 90.7811C173.194 90.9677 173.606 91.091 174.04 91.1509C174.253 91.1814 174.472 91.1963 174.695 91.1955C174.918 91.1946 175.145 91.1745 175.376 91.1351C175.803 91.0623 176.207 90.9228 176.588 90.7164C176.977 90.5088 177.313 90.258 177.598 89.964C178.198 89.3409 178.572 88.6077 178.718 87.7644C178.788 87.3434 178.786 86.9197 178.713 86.4932C178.654 86.1462 178.532 85.7801 178.348 85.395C178.17 85.0087 177.899 84.6383 177.533 84.2841C177.231 83.9934 176.892 83.7499 176.516 83.5536C176.142 83.3645 175.745 83.2388 175.325 83.1765C175.111 83.1459 174.893 83.1311 174.67 83.1319C174.454 83.1315 174.238 83.1498 174.021 83.1867ZM169.415 96.0202L182.502 95.7475L182.556 98.3319L171.888 98.5542L171.944 101.249L169.525 101.299L169.415 96.0202ZM169.491 102.563L182.547 103.496L182.363 106.074L171.72 105.314L171.528 108.002L169.114 107.829L169.491 102.563ZM181.225 115.124L180.429 118.564C180.226 119.443 179.799 120.12 179.147 120.594C178.833 120.815 178.46 120.98 178.027 121.091C177.594 121.209 177.141 121.263 176.669 121.252C176.16 121.239 175.62 121.167 175.049 121.035L171.426 120.198C170.833 120.061 170.312 119.888 169.864 119.678C169.415 119.469 169.032 119.223 168.714 118.939C168.382 118.651 168.123 118.339 167.937 118.002C167.758 117.668 167.645 117.295 167.597 116.885C167.545 116.489 167.572 116.066 167.676 115.616L168.471 112.176L181.225 115.124ZM170.246 115.24L170.165 115.593C169.922 116.644 170.536 117.339 172.008 117.679L175.631 118.516C177.103 118.857 177.96 118.502 178.203 117.451L178.285 117.098L170.246 115.24ZM172.703 122.65C173.375 122.925 173.966 123.29 174.477 123.746C174.995 124.203 175.434 124.728 175.794 125.319C176.15 125.901 176.409 126.526 176.57 127.195C176.729 127.87 176.788 128.548 176.747 129.229C176.727 129.569 176.678 129.91 176.602 130.251C176.523 130.599 176.415 130.939 176.279 131.272C175.998 131.957 175.625 132.557 175.16 133.072C174.703 133.59 174.191 134.026 173.625 134.381C172.962 134.783 172.291 135.055 171.615 135.197C170.945 135.343 170.316 135.398 169.728 135.363C169.381 135.34 169.037 135.29 168.695 135.214C168.354 135.137 168.017 135.031 167.685 134.895C167.02 134.622 166.415 134.251 165.87 133.782C165.323 133.32 164.864 132.795 164.494 132.208C164.134 131.617 163.868 130.981 163.695 130.3C163.527 129.628 163.462 128.956 163.5 128.282C163.536 127.575 163.69 126.89 163.963 126.225C164.241 125.546 164.614 124.946 165.081 124.424C165.548 123.902 166.072 123.467 166.651 123.118C167.239 122.765 167.866 122.502 168.53 122.331C169.192 122.166 169.889 122.111 170.619 122.165C170.967 122.188 171.314 122.239 171.662 122.318C172.017 122.4 172.364 122.511 172.703 122.65ZM171.702 125.034C171.288 124.864 170.855 124.762 170.402 124.726C169.949 124.691 169.523 124.723 169.126 124.822C168.687 124.927 168.284 125.087 167.919 125.302C167.56 125.52 167.25 125.785 166.987 126.097C166.696 126.421 166.466 126.787 166.3 127.194C166.133 127.601 166.037 128.018 166.013 128.444C165.996 128.873 166.044 129.289 166.156 129.691C166.262 130.091 166.426 130.472 166.651 130.833C166.882 131.197 167.166 131.52 167.503 131.8C167.668 131.939 167.845 132.067 168.035 132.185C168.224 132.302 168.428 132.405 168.645 132.494C169.045 132.658 169.462 132.754 169.895 132.781C170.334 132.81 170.753 132.776 171.15 132.677C171.989 132.466 172.694 132.042 173.264 131.404C173.546 131.083 173.769 130.723 173.933 130.323C174.067 129.997 174.157 129.622 174.204 129.197C174.258 128.776 174.224 128.318 174.102 127.824C173.999 127.417 173.84 127.031 173.625 126.666C173.408 126.307 173.137 125.99 172.814 125.715C172.649 125.576 172.472 125.448 172.282 125.331C172.099 125.216 171.906 125.117 171.702 125.034ZM161.702 139.39L158.695 136.872L160.409 134.234L172.38 139.836L170.971 142.004L164.953 139.011C164.876 138.969 164.759 138.906 164.603 138.823C164.448 138.739 164.319 138.668 164.216 138.61C164.149 138.567 164.078 138.521 164.004 138.473C163.933 138.435 163.863 138.394 163.795 138.35C163.722 138.302 163.646 138.257 163.568 138.215C163.488 138.163 163.408 138.111 163.328 138.059L162.839 137.742L160.918 136.48L160.798 136.664C160.921 136.744 161.048 136.831 161.179 136.925C161.308 137.009 161.441 137.095 161.576 137.183C161.853 137.363 162.125 137.549 162.394 137.741C162.663 137.933 162.931 138.125 163.2 138.317C163.432 138.485 163.687 138.678 163.967 138.894C164.252 139.115 164.48 139.302 164.65 139.457L169.743 143.894L168.658 145.564L162.534 142.712C162.324 142.619 162.06 142.487 161.743 142.316C161.432 142.149 161.152 141.993 160.904 141.85C160.62 141.682 160.335 141.515 160.05 141.347C159.765 141.18 159.485 141.006 159.208 140.826C159.073 140.738 158.939 140.655 158.806 140.578C158.67 140.49 158.541 140.406 158.418 140.326L158.298 140.51L160.542 141.942L160.81 142.116C160.859 142.148 160.912 142.187 160.97 142.233C161.025 142.269 161.084 142.307 161.145 142.347C161.305 142.451 161.438 142.542 161.545 142.62C161.648 142.705 161.772 142.803 161.917 142.915C161.979 142.955 162.035 142.996 162.087 143.038C162.144 143.084 162.199 143.128 162.25 143.17L167.429 147.455L166.02 149.622L156.04 140.958L157.754 138.32L161.271 140.055C161.414 140.13 161.584 140.219 161.78 140.32C161.983 140.426 162.186 140.531 162.388 140.636C162.597 140.746 162.78 140.847 162.938 140.941C163.237 141.1 163.525 141.262 163.804 141.425C164.082 141.589 164.362 141.757 164.643 141.931C164.77 142.005 164.901 142.086 165.036 142.174C165.163 142.247 165.288 142.324 165.411 142.404L165.531 142.22C165.31 142.076 165.063 141.911 164.79 141.725C164.519 141.549 164.249 141.36 163.978 141.158C163.713 140.96 163.448 140.761 163.184 140.563C162.925 140.369 162.665 140.169 162.405 139.965C162.284 139.869 162.162 139.773 162.041 139.676C161.924 139.574 161.811 139.479 161.702 139.39ZM155.073 147.351L152.684 145.221L154.404 143.292L164.175 152.002L162.162 154.26L158.883 152.649C158.6 152.514 158.287 152.358 157.945 152.18C157.608 152.008 157.27 151.83 156.932 151.646C156.6 151.468 156.308 151.306 156.055 151.159C155.513 150.853 155.014 150.565 154.557 150.295C154.1 150.025 153.632 149.745 153.153 149.456C152.926 149.313 152.708 149.173 152.497 149.034C152.281 148.891 152.071 148.752 151.866 148.618L151.719 148.783C152.049 148.997 152.345 149.188 152.609 149.355C152.879 149.526 153.154 149.703 153.434 149.884C153.715 150.065 154.044 150.285 154.423 150.544C154.698 150.72 155.003 150.924 155.338 151.154C155.679 151.389 156.012 151.621 156.337 151.852C156.667 152.088 156.952 152.302 157.192 152.496C157.409 152.661 157.618 152.823 157.819 152.982C158.021 153.153 158.213 153.318 158.393 153.479L160.881 155.697L159.161 157.627L149.39 148.916L151.293 146.782L154.504 148.288C154.728 148.389 155.003 148.521 155.329 148.684C155.655 148.848 156.003 149.02 156.371 149.201C156.741 149.393 157.1 149.585 157.448 149.778C157.931 150.041 158.425 150.314 158.929 150.597C159.439 150.884 159.931 151.176 160.405 151.47C160.636 151.608 160.862 151.745 161.083 151.883C161.304 152.021 161.514 152.155 161.714 152.283L161.86 152.119C161.456 151.857 161.024 151.58 160.566 151.29C160.113 151.004 159.636 150.697 159.134 150.367C158.658 150.041 158.177 149.71 157.69 149.375C157.209 149.044 156.746 148.71 156.3 148.372C156.083 148.197 155.87 148.022 155.663 147.847C155.456 147.683 155.259 147.517 155.073 147.351ZM145.946 163.819L146.401 164.44C146.821 165.015 147.223 165.161 147.608 164.88C147.785 164.75 147.875 164.58 147.876 164.37C147.877 164.161 147.784 163.928 147.598 163.674C147.542 163.597 147.475 163.518 147.399 163.438C147.316 163.362 147.208 163.296 147.075 163.238C146.963 163.184 146.814 163.13 146.628 163.075C146.447 163.026 146.236 162.985 145.994 162.953C145.867 162.928 145.728 162.906 145.579 162.888C145.431 162.86 145.269 162.837 145.094 162.821C144.562 162.764 144.061 162.694 143.591 162.611C143.116 162.532 142.714 162.448 142.386 162.361C142.05 162.261 141.756 162.145 141.504 162.011C141.252 161.878 141.022 161.719 140.815 161.534C140.709 161.439 140.609 161.335 140.517 161.22C140.419 161.111 140.322 160.991 140.226 160.861C139.967 160.505 139.765 160.149 139.621 159.79C139.482 159.438 139.405 159.085 139.392 158.732C139.376 158.398 139.43 158.063 139.556 157.726C139.676 157.393 139.852 157.087 140.084 156.808C140.337 156.496 140.645 156.208 141.006 155.944C141.734 155.411 142.44 155.135 143.126 155.116C143.801 155.095 144.435 155.335 145.029 155.836C145.322 156.076 145.61 156.388 145.891 156.773L146.573 157.706L144.619 159.134L143.931 158.193C143.68 157.849 143.414 157.635 143.134 157.549C142.865 157.455 142.594 157.508 142.322 157.707C142.227 157.776 142.144 157.855 142.073 157.944C142.006 158.038 141.964 158.137 141.948 158.239C141.934 158.331 141.931 158.433 141.94 158.545C141.953 158.662 141.991 158.789 142.054 158.925C142.087 158.982 142.122 159.043 142.16 159.106C142.201 159.176 142.246 159.243 142.294 159.308C142.385 159.432 142.471 159.532 142.554 159.608C142.641 159.69 142.75 159.765 142.881 159.832C143.018 159.896 143.181 159.944 143.37 159.979C143.553 160.018 143.762 160.056 143.998 160.092C144.127 160.107 144.269 160.121 144.424 160.135C144.574 160.153 144.736 160.17 144.912 160.187C145.46 160.241 145.947 160.298 146.373 160.359C146.798 160.43 147.18 160.518 147.521 160.624C147.857 160.723 148.151 160.839 148.403 160.973C148.654 161.117 148.883 161.281 149.09 161.465C149.192 161.555 149.292 161.654 149.39 161.764C149.483 161.878 149.574 161.997 149.665 162.121C149.903 162.447 150.092 162.773 150.23 163.099C150.367 163.435 150.439 163.763 150.447 164.085C150.46 164.711 150.243 165.297 149.796 165.841C149.576 166.111 149.291 166.374 148.942 166.63C148.279 167.114 147.637 167.379 147.016 167.425C146.809 167.44 146.556 167.411 146.258 167.338C145.959 167.266 145.647 167.099 145.32 166.839C145.054 166.624 144.802 166.354 144.564 166.029L143.993 165.247L145.946 163.819ZM138.386 165.44C138.179 165.043 137.931 164.685 137.64 164.365C137.343 164.048 137.001 163.78 136.613 163.56C136.272 163.366 135.904 163.231 135.509 163.155C135.108 163.083 134.711 163.083 134.319 163.155C133.907 163.221 133.509 163.354 133.125 163.554C132.494 163.882 132.014 164.318 131.685 164.861C131.363 165.401 131.208 165.994 131.222 166.64C131.228 166.794 131.244 166.951 131.269 167.112C131.298 167.279 131.336 167.445 131.381 167.612L129.039 168.831C128.797 168.238 128.659 167.656 128.627 167.086C128.588 166.519 128.628 165.961 128.747 165.412C128.997 164.256 129.558 163.253 130.429 162.402C130.868 161.975 131.371 161.614 131.937 161.32C132.503 161.025 133.121 160.815 133.791 160.689C134.455 160.567 135.162 160.566 135.912 160.689C136.569 160.793 137.201 161.005 137.807 161.327C138.415 161.654 138.957 162.059 139.43 162.54C139.674 162.785 139.903 163.05 140.118 163.335C140.326 163.624 140.516 163.934 140.689 164.266C141.041 164.942 141.275 165.622 141.391 166.306C141.505 166.999 141.521 167.673 141.439 168.327C141.343 169.047 141.139 169.711 140.828 170.32C140.52 170.935 140.162 171.456 139.756 171.882C139.517 172.122 139.259 172.348 138.98 172.559C138.702 172.771 138.403 172.959 138.084 173.125C136.965 173.708 135.797 173.94 134.578 173.822C133.993 173.763 133.43 173.618 132.888 173.388C132.35 173.164 131.864 172.875 131.432 172.521C130.993 172.154 130.605 171.711 130.269 171.192L132.61 169.973C132.815 170.238 133.053 170.466 133.325 170.655C133.594 170.854 133.867 171.005 134.144 171.109C134.428 171.209 134.724 171.27 135.033 171.291C135.345 171.319 135.661 171.299 135.982 171.231C136.312 171.15 136.629 171.03 136.935 170.871C137.351 170.654 137.698 170.391 137.975 170.081C138.255 169.778 138.47 169.468 138.619 169.151C138.951 168.407 139.03 167.606 138.855 166.746C138.815 166.527 138.754 166.306 138.672 166.085C138.593 165.87 138.498 165.655 138.386 165.44ZM121.986 176.102C121.776 175.484 121.725 174.912 121.834 174.388C121.881 174.139 121.964 173.906 122.084 173.687C122.196 173.471 122.358 173.265 122.571 173.068C122.774 172.891 123.006 172.743 123.267 172.623L123.211 172.456C122.961 172.541 122.68 172.547 122.369 172.475C122.072 172.398 121.809 172.251 121.58 172.034C121.522 171.976 121.471 171.916 121.426 171.854C121.375 171.794 121.327 171.733 121.282 171.671L118.352 167.113L120.8 166.281L124.027 171.029L124.818 170.76L123.039 165.521L125.487 164.689L129.697 177.084L126.051 178.322C125.718 178.435 125.381 178.492 125.04 178.491C124.694 178.5 124.364 178.45 124.048 178.341C123.729 178.224 123.443 178.066 123.189 177.865C122.928 177.667 122.693 177.418 122.482 177.118C122.276 176.808 122.111 176.47 121.986 176.102ZM125.597 173.051L125.024 173.246C124.892 173.291 124.773 173.35 124.667 173.425C124.553 173.502 124.458 173.597 124.38 173.709C124.249 173.916 124.191 174.168 124.206 174.465C124.219 174.592 124.254 174.743 124.313 174.916C124.448 175.312 124.655 175.59 124.934 175.751C125.215 175.919 125.537 175.941 125.898 175.818L126.471 175.624L125.597 173.051ZM119.348 173.625C119.47 174.34 119.472 175.036 119.356 175.71C119.242 176.391 119.029 177.041 118.717 177.66C118.412 178.269 118.018 178.82 117.536 179.311C117.047 179.803 116.503 180.212 115.904 180.537C115.604 180.699 115.289 180.838 114.959 180.954C114.622 181.071 114.276 181.159 113.922 181.22C113.192 181.344 112.486 181.345 111.803 181.223C111.121 181.108 110.48 180.905 109.88 180.613C109.188 180.262 108.603 179.837 108.124 179.338C107.646 178.847 107.266 178.342 106.985 177.825C106.821 177.518 106.681 177.199 106.566 176.869C106.45 176.539 106.362 176.197 106.302 175.843C106.182 175.134 106.176 174.425 106.286 173.715C106.389 173.005 106.591 172.339 106.894 171.714C107.206 171.096 107.605 170.533 108.091 170.027C108.572 169.528 109.108 169.117 109.701 168.794C110.319 168.45 110.983 168.218 111.691 168.098C112.414 167.975 113.121 167.974 113.811 168.095C114.501 168.215 115.147 168.429 115.749 168.736C116.36 169.048 116.915 169.441 117.412 169.915C117.901 170.389 118.317 170.951 118.658 171.6C118.821 171.907 118.962 172.229 119.079 172.566C119.197 172.91 119.286 173.263 119.348 173.625ZM116.796 174.036C116.721 173.595 116.578 173.173 116.368 172.77C116.159 172.367 115.907 172.023 115.613 171.738C115.291 171.421 114.942 171.164 114.567 170.968C114.192 170.778 113.803 170.655 113.399 170.597C112.97 170.521 112.538 170.52 112.104 170.594C111.671 170.668 111.267 170.807 110.892 171.012C110.519 171.224 110.192 171.485 109.909 171.793C109.626 172.094 109.39 172.435 109.202 172.817C109.015 173.206 108.892 173.617 108.832 174.052C108.801 174.265 108.786 174.483 108.787 174.706C108.787 174.929 108.807 175.157 108.847 175.388C108.919 175.814 109.059 176.219 109.265 176.6C109.472 176.989 109.723 177.325 110.017 177.61C110.64 178.211 111.373 178.585 112.216 178.731C112.637 178.801 113.061 178.8 113.487 178.727C113.834 178.668 114.2 178.547 114.586 178.362C114.972 178.185 115.342 177.914 115.697 177.548C115.988 177.246 116.231 176.907 116.428 176.531C116.617 176.157 116.743 175.76 116.805 175.34C116.836 175.127 116.851 174.908 116.85 174.685C116.851 174.47 116.833 174.253 116.796 174.036ZM103.963 169.425L104.229 182.512L101.645 182.564L101.428 171.897L98.7336 171.951L98.6846 169.532L103.963 169.425ZM97.4201 169.495L96.4515 182.549L93.8736 182.358L94.6631 171.717L91.9755 171.518L92.1546 169.105L97.4201 169.495ZM84.8264 181.201L81.3882 180.397C80.5099 180.191 79.8346 179.762 79.3622 179.11C79.1421 178.795 78.9773 178.421 78.8675 177.988C78.7506 177.554 78.6984 177.102 78.7108 176.63C78.7244 176.121 78.798 175.581 78.9316 175.01L79.7784 171.389C79.9171 170.797 80.0915 170.277 80.3017 169.829C80.5119 169.381 80.7596 168.998 81.0447 168.681C81.3331 168.349 81.6458 168.091 81.9828 167.906C82.318 167.728 82.6908 167.616 83.101 167.569C83.4969 167.518 83.9197 167.546 84.3696 167.651L87.8078 168.455L84.8264 181.201ZM84.7396 170.223L84.3861 170.14C83.3364 169.895 82.6396 170.507 82.2955 171.978L81.4487 175.599C81.1046 177.069 81.4574 177.928 82.5071 178.173L82.8605 178.256L84.7396 170.223ZM77.3322 172.664C77.0561 173.336 76.6903 173.927 76.2346 174.437C75.7761 174.954 75.251 175.392 74.6593 175.752C74.0771 176.107 73.4516 176.365 72.7827 176.526C72.1071 176.685 71.429 176.743 70.7485 176.701C70.4083 176.68 70.0676 176.631 69.7265 176.554C69.3786 176.475 69.0385 176.366 68.7062 176.23C68.0212 175.948 67.4215 175.575 66.9071 175.109C66.3899 174.651 65.9543 174.139 65.6002 173.573C65.1994 172.909 64.928 172.238 64.7861 171.561C64.6413 170.891 64.5868 170.262 64.6224 169.674C64.6461 169.327 64.6964 168.983 64.7732 168.642C64.85 168.301 64.9568 167.964 65.0934 167.632C65.3667 166.967 65.7382 166.363 66.2078 165.818C66.6706 165.271 67.1959 164.813 67.7837 164.444C68.3754 164.085 69.0119 163.82 69.6931 163.648C70.3648 163.48 71.0374 163.416 71.7112 163.455C72.4176 163.491 73.1032 163.646 73.7678 163.92C74.4461 164.199 75.0458 164.572 75.5669 165.04C76.0881 165.508 76.523 166.032 76.8715 166.611C77.224 167.2 77.4856 167.827 77.6562 168.492C77.8201 169.154 77.8747 169.85 77.82 170.581C77.7962 170.928 77.7446 171.276 77.665 171.624C77.5826 171.978 77.4717 172.325 77.3322 172.664ZM74.9498 171.661C75.1199 171.247 75.2228 170.814 75.2585 170.361C75.2942 169.907 75.2628 169.482 75.1645 169.085C75.0598 168.645 74.9002 168.243 74.6858 167.877C74.4687 167.518 74.2041 167.207 73.892 166.944C73.568 166.652 73.2025 166.423 72.7955 166.255C72.3886 166.088 71.9721 165.992 71.5461 165.968C71.1173 165.95 70.7015 165.997 70.2987 166.109C69.8986 166.214 69.5178 166.379 69.1561 166.603C68.7916 166.833 68.4689 167.117 68.1879 167.453C68.0487 167.618 67.9204 167.795 67.8028 167.985C67.6852 168.174 67.5818 168.378 67.4926 168.595C67.328 168.995 67.2321 169.411 67.2048 169.844C67.1747 170.284 67.2088 170.702 67.3072 171.099C67.517 171.939 67.9406 172.644 68.5779 173.215C68.8979 173.498 69.258 173.721 69.6582 173.886C69.9837 174.02 70.3587 174.11 70.7831 174.158C71.2048 174.212 71.6627 174.179 72.1568 174.057C72.5636 173.954 72.9499 173.796 73.3155 173.582C73.6744 173.365 73.9916 173.095 74.2671 172.772C74.4062 172.607 74.5345 172.43 74.6521 172.24C74.7669 172.057 74.8661 171.864 74.9498 171.661ZM60.6076 161.656L63.1249 158.648L65.7635 160.361L60.1666 172.334L57.9985 170.926L60.9888 164.907C61.0306 164.829 61.0932 164.712 61.1768 164.557C61.2603 164.401 61.331 164.272 61.3887 164.17C61.4326 164.102 61.4786 164.031 61.5265 163.958C61.5643 163.886 61.6051 163.816 61.649 163.749C61.697 163.675 61.7418 163.599 61.7836 163.521C61.8355 163.441 61.8874 163.361 61.9393 163.281L62.2568 162.792L63.518 160.87L63.3335 160.75C63.2536 160.873 63.1667 161.001 63.0727 161.132C62.9888 161.261 62.9029 161.393 62.8151 161.529C62.6354 161.805 62.4495 162.078 62.2575 162.347C62.0655 162.616 61.8735 162.885 61.6815 163.153C61.5134 163.385 61.3213 163.641 61.105 163.92C60.8847 164.205 60.6973 164.433 60.5427 164.604L56.1072 169.698L54.4373 168.614L57.286 162.49C57.379 162.279 57.5111 162.015 57.6822 161.698C57.8492 161.386 58.0045 161.107 58.148 160.859C58.3154 160.574 58.4828 160.29 58.6502 160.005C58.8176 159.72 58.9911 159.439 59.1708 159.162C59.2587 159.027 59.3415 158.893 59.4192 158.76C59.5071 158.624 59.5909 158.495 59.6708 158.372L59.4863 158.252L58.0551 160.497L57.8814 160.765C57.8494 160.814 57.8104 160.867 57.7643 160.925C57.7284 160.98 57.6904 161.038 57.6505 161.1C57.5467 161.26 57.4557 161.393 57.3777 161.5C57.2935 161.603 57.1954 161.727 57.0832 161.873C57.0433 161.934 57.0023 161.991 56.9602 162.042C56.9141 162.1 56.87 162.154 56.8279 162.205L52.546 167.386L50.3779 165.978L59.0378 155.994L61.6764 157.707L59.9434 161.225C59.8678 161.368 59.7794 161.538 59.678 161.734C59.5727 161.937 59.4673 162.14 59.362 162.342C59.2526 162.551 59.1511 162.734 59.0574 162.892C58.8983 163.191 58.7371 163.48 58.5737 163.758C58.4103 164.037 58.2418 164.317 58.0682 164.598C57.9945 164.725 57.9137 164.856 57.8259 164.991C57.7521 165.118 57.6753 165.243 57.5955 165.366L57.78 165.486C57.9238 165.264 58.0886 165.017 58.2744 164.745C58.4501 164.474 58.6391 164.203 58.8412 163.932C59.0394 163.667 59.2375 163.403 59.4357 163.138C59.6299 162.879 59.8291 162.619 60.0334 162.359C60.1296 162.237 60.2257 162.116 60.3219 161.995C60.4242 161.878 60.5195 161.765 60.6076 161.656ZM52.6442 155.023L54.7769 152.636L56.7046 154.359L47.9829 164.12L45.7272 162.105L47.3425 158.827C47.4772 158.545 47.6336 158.232 47.8117 157.889C47.9849 157.553 48.1633 157.215 48.3468 156.878C48.5255 156.546 48.6883 156.254 48.8351 156.001C49.1422 155.459 49.4309 154.96 49.7013 154.503C49.9716 154.047 50.2518 153.579 50.5417 153.101C50.6848 152.874 50.8257 152.656 50.9645 152.446C51.1081 152.23 51.2469 152.02 51.3808 151.815L51.2168 151.668C51.0016 151.997 50.8105 152.293 50.6435 152.557C50.4717 152.827 50.295 153.102 50.1134 153.382C49.9318 153.662 49.7114 153.991 49.4522 154.369C49.2755 154.644 49.072 154.949 48.8415 155.284C48.6062 155.625 48.373 155.957 48.1419 156.282C47.906 156.612 47.6909 156.897 47.4966 157.136C47.3322 157.353 47.17 157.562 47.0099 157.763C46.8395 157.965 46.6737 158.156 46.5124 158.337L44.2917 160.822L42.3641 159.1L51.0857 149.338L53.2184 151.244L51.7084 154.453C51.6067 154.677 51.4742 154.952 51.3107 155.278C51.1473 155.604 50.9746 155.951 50.7928 156.32C50.6006 156.689 50.4079 157.048 50.2145 157.396C49.9508 157.878 49.6773 158.371 49.3941 158.876C49.1059 159.385 48.8142 159.877 48.5188 160.35C48.3812 160.582 48.2433 160.807 48.1051 161.028C47.9669 161.249 47.8332 161.459 47.7042 161.658L47.8683 161.805C48.1312 161.401 48.4082 160.97 48.6992 160.512C48.9854 160.059 49.2936 159.582 49.6237 159.081C49.9502 158.605 50.2815 158.125 50.6177 157.638C50.949 157.157 51.2839 156.694 51.6225 156.25C51.7972 156.032 51.9722 155.82 52.1475 155.612C52.3125 155.406 52.478 155.209 52.6442 155.023ZM36.1876 145.88L35.5656 146.334C34.991 146.753 34.8442 147.155 35.1252 147.54C35.2549 147.718 35.4246 147.808 35.6343 147.809C35.8441 147.81 36.0763 147.718 36.331 147.532C36.408 147.476 36.4866 147.409 36.5668 147.333C36.6427 147.25 36.7094 147.142 36.7669 147.01C36.8211 146.897 36.8759 146.748 36.9311 146.563C36.9804 146.382 37.0213 146.17 37.0538 145.929C37.079 145.801 37.1006 145.663 37.1186 145.514C37.147 145.366 37.1696 145.204 37.1866 145.028C37.2434 144.497 37.3138 143.996 37.3976 143.526C37.4772 143.05 37.5609 142.649 37.6488 142.321C37.7485 141.985 37.8653 141.691 37.9992 141.439C38.133 141.187 38.2922 140.958 38.4768 140.75C38.5721 140.645 38.6768 140.545 38.7909 140.453C38.9007 140.355 39.0208 140.258 39.1511 140.163C39.5065 139.904 39.8634 139.702 40.2217 139.559C40.5741 139.419 40.9271 139.343 41.2808 139.33C41.614 139.314 41.9491 139.369 42.2863 139.495C42.6192 139.616 42.9249 139.792 43.2035 140.024C43.5155 140.278 43.8034 140.585 44.0671 140.947C44.5988 141.675 44.8742 142.382 44.8931 143.067C44.9136 143.742 44.6728 144.377 44.1708 144.97C43.9308 145.263 43.6183 145.55 43.2332 145.831L42.3002 146.512L40.8737 144.557L41.8155 143.87C42.1591 143.619 42.3738 143.353 42.4596 143.073C42.554 142.804 42.5018 142.534 42.303 142.261C42.2338 142.166 42.155 142.083 42.0664 142.012C41.972 141.945 41.8735 141.903 41.771 141.887C41.6788 141.872 41.5769 141.87 41.4653 141.878C41.3478 141.892 41.2212 141.93 41.0854 141.992C41.0278 142.025 40.9672 142.06 40.9036 142.098C40.8341 142.139 40.7668 142.184 40.7016 142.232C40.5772 142.322 40.4771 142.409 40.4012 142.492C40.3194 142.579 40.2446 142.688 40.1769 142.819C40.1135 142.956 40.0645 143.119 40.0297 143.307C39.9907 143.49 39.9527 143.7 39.9159 143.935C39.901 144.064 39.8867 144.206 39.8729 144.361C39.8548 144.511 39.8373 144.673 39.8204 144.849C39.7663 145.397 39.7086 145.884 39.6473 146.31C39.5757 146.735 39.4871 147.117 39.3814 147.457C39.2817 147.793 39.1649 148.087 39.0311 148.339C38.887 148.59 38.7227 148.819 38.5381 149.026C38.4487 149.128 38.3492 149.227 38.2393 149.326C38.1252 149.418 38.0059 149.51 37.8815 149.601C37.5557 149.838 37.2298 150.026 36.9039 150.164C36.5677 150.301 36.2389 150.373 35.9176 150.38C35.2911 150.392 34.7057 150.175 34.1615 149.728C33.8916 149.507 33.6291 149.222 33.374 148.873C32.8899 148.209 32.6254 147.567 32.5807 146.946C32.5658 146.739 32.5948 146.486 32.6677 146.188C32.7405 145.89 32.9074 145.577 33.1683 145.251C33.383 144.985 33.6533 144.733 33.9791 144.496L34.761 143.925L36.1876 145.88ZM34.5734 138.317C34.9704 138.111 35.329 137.863 35.6492 137.573C35.9661 137.276 36.2347 136.934 36.455 136.547C36.6499 136.206 36.7852 135.838 36.8612 135.443C36.9337 135.042 36.9341 134.645 36.8625 134.253C36.7971 133.84 36.6647 133.442 36.4652 133.058C36.1374 132.427 35.7019 131.947 35.1589 131.617C34.6193 131.294 34.0265 131.139 33.3806 131.153C33.2265 131.158 33.0693 131.174 32.909 131.199C32.7422 131.228 32.5755 131.265 32.4089 131.31L31.192 128.968C31.7852 128.725 32.3669 128.589 32.9372 128.557C33.504 128.519 34.0622 128.559 34.6118 128.679C35.7669 128.93 36.7694 129.492 37.6193 130.364C38.0459 130.804 38.4062 131.306 38.7003 131.873C38.9944 132.439 39.204 133.057 39.3291 133.728C39.4509 134.392 39.4503 135.098 39.3274 135.848C39.2227 136.506 39.0094 137.137 38.6874 137.742C38.359 138.351 37.9541 138.892 37.4726 139.365C37.2271 139.608 36.9617 139.837 36.6763 140.051C36.3876 140.259 36.0773 140.449 35.7454 140.622C35.0686 140.973 34.3883 141.207 33.7046 141.322C33.011 141.434 32.3372 141.45 31.6832 141.368C30.9634 141.271 30.2993 141.066 29.691 140.754C29.0762 140.446 28.5557 140.088 28.1296 139.681C27.8898 139.442 27.6644 139.183 27.4535 138.904C27.2425 138.626 27.0542 138.327 26.8886 138.008C26.3072 136.888 26.076 135.719 26.195 134.501C26.2548 133.916 26.4003 133.353 26.6314 132.811C26.856 132.273 27.1454 131.788 27.4995 131.356C27.8666 130.918 28.31 130.531 28.8296 130.195L30.0465 132.537C29.7807 132.742 29.5532 132.98 29.3638 133.251C29.1646 133.52 29.013 133.793 28.9091 134.07C28.8085 134.354 28.7474 134.65 28.726 134.959C28.698 135.271 28.7176 135.587 28.7849 135.907C28.8654 136.237 28.9851 136.555 29.144 136.861C29.3603 137.278 29.6231 137.625 29.9324 137.902C30.2352 138.183 30.5452 138.398 30.8624 138.547C31.6055 138.88 32.407 138.959 33.267 138.785C33.4861 138.746 33.7066 138.685 33.9284 138.603C34.1436 138.524 34.3586 138.429 34.5734 138.317ZM23.9279 121.909C24.546 121.699 25.1174 121.649 25.6421 121.758C25.8904 121.805 26.1239 121.889 26.3425 122.008C26.5587 122.121 26.7647 122.283 26.9605 122.496C27.1378 122.699 27.2862 122.931 27.4057 123.193L27.5724 123.136C27.4877 122.886 27.4817 122.606 27.5544 122.295C27.6318 121.997 27.7789 121.735 27.9958 121.506C28.0535 121.448 28.1136 121.397 28.176 121.352C28.236 121.301 28.2972 121.253 28.3596 121.209L32.9197 118.282L33.7491 120.731L28.9991 123.954L29.2673 124.746L34.5078 122.971L35.3371 125.419L22.9391 129.618L21.7039 125.972C21.591 125.639 21.5349 125.301 21.5355 124.961C21.5269 124.615 21.5775 124.284 21.6872 123.968C21.804 123.65 21.9626 123.364 22.1631 123.11C22.3613 122.85 22.6106 122.614 22.9111 122.404C23.2208 122.199 23.5598 122.033 23.9279 121.909ZM26.9752 125.522L26.7811 124.949C26.7364 124.817 26.6767 124.698 26.602 124.592C26.5249 124.478 26.4305 124.383 26.3188 124.304C26.1118 124.173 25.8599 124.115 25.5631 124.131C25.4356 124.143 25.2851 124.178 25.1114 124.237C24.7155 124.371 24.4371 124.578 24.2761 124.857C24.1082 125.138 24.0854 125.46 24.2077 125.821L24.4018 126.394L26.9752 125.522ZM26.4067 119.27C25.6909 119.391 24.9958 119.393 24.3217 119.276C23.6403 119.161 22.9906 118.947 22.3727 118.635C21.7632 118.329 21.2133 117.934 20.7228 117.452C20.2311 116.962 19.8231 116.418 19.4987 115.818C19.3366 115.518 19.1979 115.203 19.0826 114.873C18.9662 114.536 18.8781 114.19 18.8183 113.836C18.695 113.105 18.6947 112.399 18.8175 111.716C18.933 111.035 19.1372 110.394 19.4301 109.794C19.7819 109.103 20.2075 108.518 20.7068 108.039C21.1989 107.562 21.7039 107.183 22.2217 106.902C22.5288 106.739 22.8474 106.6 23.1775 106.484C23.5076 106.369 23.8498 106.282 24.2041 106.222C24.9128 106.102 25.6222 106.098 26.3326 106.208C27.0417 106.312 27.7082 106.515 28.3321 106.819C28.95 107.131 29.5121 107.531 30.0182 108.018C30.5159 108.499 30.9263 109.036 31.2495 109.629C31.5919 110.248 31.823 110.911 31.9426 111.62C32.0647 112.343 32.0649 113.05 31.9434 113.74C31.8218 114.429 31.6074 115.075 31.3 115.678C30.9866 116.288 30.5929 116.842 30.119 117.338C29.6438 117.828 29.0816 118.242 28.4325 118.582C28.1254 118.746 27.8032 118.886 27.4659 119.002C27.1213 119.12 26.7683 119.209 26.4067 119.27ZM25.9981 116.718C26.4392 116.643 26.8615 116.501 27.2649 116.292C27.6684 116.082 28.0127 115.831 28.2978 115.537C28.6154 115.216 28.8727 114.868 29.0696 114.492C29.2593 114.118 29.3833 113.729 29.4415 113.325C29.5178 112.896 29.5193 112.464 29.4461 112.03C29.3728 111.597 29.2339 111.192 29.0294 110.818C28.8177 110.445 28.5578 110.117 28.2498 109.834C27.949 109.55 27.6079 109.314 27.2265 109.125C26.838 108.938 26.4266 108.814 25.9925 108.754C25.779 108.723 25.5608 108.707 25.3377 108.708C25.1147 108.708 24.8875 108.728 24.6561 108.767C24.2294 108.839 23.8253 108.978 23.4435 109.184C23.0545 109.391 22.7175 109.641 22.4324 109.935C21.8309 110.557 21.4562 111.289 21.3085 112.132C21.2382 112.553 21.2391 112.977 21.3111 113.404C21.3697 113.751 21.4911 114.117 21.6751 114.502C21.8519 114.889 22.1227 115.26 22.4876 115.615C22.7896 115.906 23.1283 116.15 23.5036 116.347C23.8777 116.536 24.2746 116.663 24.6943 116.726C24.9078 116.757 25.126 116.772 25.349 116.771C25.5649 116.772 25.7812 116.754 25.9981 116.718ZM30.625 103.891L17.5374 104.143L17.4877 101.558L28.1557 101.353L28.1039 98.6584L30.5234 98.6119L30.625 103.891ZM30.561 97.3476L17.5074 96.3717L17.7001 93.7939L28.3404 94.5894L28.5413 91.9019L30.9546 92.0823L30.561 97.3476ZM18.866 84.7393L19.6744 81.3021C19.8809 80.4241 20.3108 79.7492 20.9642 79.2776C21.2795 79.058 21.6534 78.8935 22.0859 78.7843C22.5201 78.668 22.9729 78.6163 23.4445 78.6292C23.9534 78.6435 24.4934 78.7177 25.0645 78.8521L28.6837 79.7033C29.2762 79.8426 29.7963 80.0177 30.244 80.2284C30.6916 80.4392 31.0739 80.6873 31.391 80.9728C31.7223 81.2617 31.9802 81.5747 32.1646 81.9119C32.3418 82.2473 32.4537 82.6202 32.5004 83.0305C32.5504 83.4264 32.5225 83.8493 32.4167 84.299L31.6083 87.7362L18.866 84.7393ZM29.8444 84.6658L29.9275 84.3125C30.1743 83.2631 29.5625 82.5655 28.0919 82.2196L24.4727 81.3684C23.0021 81.0225 22.1435 81.3743 21.8967 82.4237L21.8135 82.777L29.8444 84.6658ZM27.4115 77.2566C26.7403 76.9798 26.1497 76.6133 25.6398 76.1572C25.1231 75.6982 24.6854 75.1726 24.3267 74.5805C23.972 73.9979 23.7145 73.3722 23.5541 72.7032C23.3965 72.0274 23.339 71.3492 23.3816 70.6688C23.4029 70.3285 23.4522 69.9879 23.5293 69.6469C23.6093 69.2991 23.7178 68.9591 23.8548 68.6269C24.1371 67.9422 24.5112 67.3429 24.977 66.829C25.4359 66.3123 25.9485 65.8772 26.5147 65.5237C27.1795 65.1235 27.8503 64.8528 28.5273 64.7116C29.1975 64.5675 29.8266 64.5136 30.4145 64.5498C30.7615 64.5739 31.1055 64.6246 31.4465 64.7017C31.7875 64.7789 32.1241 64.886 32.4563 65.023C33.1207 65.297 33.7248 65.669 34.2687 66.1392C34.8153 66.6026 35.2727 67.1283 35.641 67.7165C35.9997 68.3086 36.2646 68.9454 36.4357 69.6268C36.6029 70.2986 36.6666 70.9713 36.6267 71.645C36.5893 72.3514 36.4336 73.0368 36.1596 73.7012C35.88 74.3791 35.5059 74.9784 35.0374 75.4991C34.5688 76.0198 34.0447 76.4541 33.4649 76.8021C32.8756 77.154 32.2484 77.4149 31.5834 77.5849C30.9211 77.7481 30.2247 77.802 29.494 77.7465C29.1469 77.7224 28.7995 77.6704 28.4518 77.5904C28.0972 77.5077 27.7504 77.3964 27.4115 77.2566ZM28.4173 74.8752C28.8308 75.0458 29.2642 75.1491 29.7173 75.1852C30.1704 75.2214 30.5956 75.1905 30.9929 75.0926C31.4326 74.9883 31.8353 74.8291 32.2012 74.6151C32.5603 74.3983 32.8716 74.134 33.135 73.8222C33.4271 73.4985 33.6571 73.1333 33.8248 72.7265C33.9926 72.3197 34.0889 71.9033 34.1139 71.4773C34.1321 71.0486 34.0854 70.6327 33.9739 70.2298C33.8692 69.8296 33.7051 69.4486 33.4815 69.0867C33.2512 68.722 32.9679 68.399 32.6318 68.1176C32.4671 67.9783 32.2901 67.8498 32.1007 67.732C31.9113 67.6142 31.7081 67.5106 31.4912 67.4211C31.0912 67.2562 30.6748 67.1598 30.242 67.1321C29.8025 67.1016 29.384 67.1352 28.9867 67.2332C28.1469 67.4421 27.4411 67.865 26.8692 68.5017C26.5866 68.8214 26.3628 69.1813 26.1979 69.5813C26.0637 69.9067 25.9726 70.2816 25.9245 70.706C25.8696 71.1276 25.9029 71.5855 26.0243 72.0798C26.1262 72.4867 26.2841 72.8731 26.4981 73.239C26.7149 73.5981 26.9846 73.9156 27.3072 74.1913C27.4718 74.3306 27.6489 74.4592 27.8383 74.5769C28.0209 74.6919 28.2139 74.7913 28.4173 74.8752ZM38.4359 60.5432L41.442 63.0631L39.7265 65.7002L27.7583 60.0928L29.1679 57.9259L35.1847 60.9215C35.2624 60.9633 35.3791 61.0261 35.5346 61.1098C35.6901 61.1935 35.8191 61.2642 35.9214 61.3221C35.989 61.366 36.0597 61.412 36.1335 61.46C36.2051 61.4979 36.2747 61.5388 36.3423 61.5828C36.4161 61.6307 36.4919 61.6757 36.5696 61.7175C36.6496 61.7695 36.7295 61.8215 36.8094 61.8735L37.2981 62.1914L39.2192 63.4543L39.3391 63.2698C39.2162 63.1899 39.0891 63.1028 38.9579 63.0087C38.8288 62.9247 38.6966 62.8387 38.5614 62.7508C38.2848 62.5708 38.0122 62.3847 37.7435 62.1925C37.4749 62.0002 37.2063 61.808 36.9377 61.6157C36.7059 61.4475 36.4505 61.2551 36.1715 61.0385C35.8863 60.818 35.6584 60.6304 35.4878 60.4757L30.3975 56.0357L31.4833 54.3668L37.6052 57.2208C37.8158 57.3141 38.0797 57.4463 38.3969 57.6177C38.7079 57.7851 38.9873 57.9406 39.2351 58.0842C39.5197 58.2519 39.8043 58.4196 40.0889 58.5872C40.3735 58.7549 40.6541 58.9287 40.9308 59.1086C41.066 59.1966 41.2001 59.2795 41.3332 59.3573C41.4685 59.4453 41.5976 59.5293 41.7205 59.6093L41.8405 59.4249L39.5971 57.9917L39.3297 57.8177C39.2805 57.7857 39.2272 57.7467 39.1697 57.7005C39.1144 57.6646 39.056 57.6266 38.9945 57.5866C38.8347 57.4826 38.7015 57.3916 38.5948 57.3134C38.4922 57.2292 38.368 57.1309 38.2223 57.0186C38.1609 56.9786 38.1045 56.9376 38.0531 56.8954C37.9957 56.8493 37.9413 56.8051 37.8899 56.763L32.7129 52.4765L34.1225 50.3097L44.0993 58.9784L42.3838 61.6155L38.8678 59.8793C38.7245 59.8037 38.5547 59.715 38.3583 59.6135C38.1557 59.508 37.9532 59.4025 37.7506 59.2969C37.5419 59.1874 37.3587 59.0857 37.2011 58.9919C36.9023 58.8326 36.6137 58.671 36.3352 58.5074C36.0568 58.3437 35.7772 58.175 35.4966 58.0012C35.3697 57.9274 35.2386 57.8465 35.1033 57.7585C34.9764 57.6847 34.8514 57.6077 34.7285 57.5278L34.6085 57.7122C34.8298 57.8561 35.0768 58.0212 35.3494 58.2073C35.6199 58.3832 35.8905 58.5724 36.1613 58.7748C36.4259 58.9732 36.6905 59.1716 36.9551 59.37C37.2136 59.5644 37.4732 59.7638 37.7338 59.9684C37.8549 60.0646 37.976 60.1609 38.097 60.2572C38.2141 60.3596 38.3271 60.4549 38.4359 60.5432ZM45.0769 52.5855L47.4613 54.7211L45.7367 56.6467L35.9858 47.9135L38.004 45.6602L41.2792 47.2793C41.5619 47.4143 41.8743 47.5711 42.2165 47.7496C42.5533 47.9232 42.8903 48.102 43.2276 48.286C43.5594 48.4651 43.8515 48.6281 44.1036 48.7753C44.6451 49.083 45.144 49.3723 45.6004 49.6432C46.0567 49.9141 46.524 50.1948 47.0022 50.4852C47.2282 50.6286 47.4463 50.7698 47.6565 50.9088C47.8721 51.0528 48.0823 51.1918 48.2871 51.3259L48.4338 51.162C48.1052 50.9464 47.809 50.755 47.5453 50.5878C47.2762 50.4156 47.0016 50.2386 46.7215 50.0567C46.4414 49.8747 46.1125 49.654 45.7347 49.3943C45.4601 49.2173 45.1554 49.0134 44.8207 48.7825C44.4806 48.5468 44.1483 48.3132 43.824 48.0818C43.4942 47.8455 43.2096 47.63 42.9704 47.4355C42.7536 47.2708 42.5447 47.1084 42.3438 46.948C42.1422 46.7774 41.9513 46.6113 41.771 46.4499L39.2882 44.2262L41.0129 42.3006L50.7638 51.0338L48.8557 53.1642L45.6486 51.6504C45.4248 51.5484 45.1501 51.4156 44.8242 51.2517C44.4984 51.0879 44.1513 50.9149 43.783 50.7326C43.414 50.54 43.0554 50.3468 42.7072 50.1531C42.2253 49.8888 41.7324 49.6147 41.2286 49.3309C40.7193 49.0421 40.228 48.7498 39.7547 48.4538C39.5238 48.3159 39.2981 48.1778 39.0775 48.0393C38.857 47.9008 38.6471 47.767 38.4478 47.6377L38.301 47.8016C38.705 48.065 39.1358 48.3425 39.5933 48.6341C40.0453 48.9208 40.5219 49.2295 41.0231 49.5603C41.4981 49.8873 41.9786 50.2192 42.4645 50.5559C42.945 50.8878 43.4075 51.2233 43.852 51.5623C44.0694 51.7373 44.2816 51.9126 44.4886 52.0882C44.695 52.2534 44.8911 52.4191 45.0769 52.5855ZM54.237 36.14L53.7836 35.5176C53.3648 34.9426 52.9628 34.7954 52.5775 35.0761C52.3997 35.2056 52.31 35.3752 52.3085 35.5849C52.3071 35.7947 52.3992 36.027 52.5848 36.2819C52.6409 36.3589 52.7073 36.4376 52.7839 36.5179C52.8665 36.5938 52.9741 36.6606 53.1068 36.7182C53.219 36.7726 53.3678 36.8275 53.5533 36.8829C53.7345 36.9323 53.9459 36.9734 54.1874 37.0062C54.3147 37.0314 54.453 37.0531 54.6024 37.0714C54.7501 37.0998 54.9119 37.1226 55.0877 37.1398C55.6193 37.1971 56.12 37.2679 56.5896 37.3522C57.0652 37.4322 57.4667 37.5163 57.794 37.6045C58.13 37.7045 58.4239 37.8215 58.6758 37.9556C58.9277 38.0897 59.1572 38.2491 59.3644 38.4339C59.4701 38.5292 59.5691 38.634 59.6614 38.7483C59.7596 38.8582 59.8562 38.9784 59.9512 39.1088C60.2103 39.4644 60.4114 39.8215 60.5545 40.1799C60.6933 40.5324 60.769 40.8855 60.7817 41.2392C60.7976 41.5724 60.7423 41.9075 60.6158 42.2446C60.4953 42.5773 60.3187 42.8829 60.086 43.1612C59.8322 43.4731 59.5246 43.7607 59.163 44.024C58.4339 44.5551 57.7267 44.8297 57.0415 44.848C56.3665 44.8679 55.7325 44.6266 55.1396 44.124C54.8467 43.8837 54.5599 43.5709 54.2792 43.1856L53.5992 42.252L55.5553 40.8273L56.2418 41.7698C56.4923 42.1136 56.7577 42.3285 57.0381 42.4145C57.3067 42.5092 57.5773 42.4573 57.85 42.2587C57.9448 42.1896 58.028 42.1108 58.0997 42.0224C58.167 41.928 58.2087 41.8295 58.2248 41.7271C58.2393 41.6349 58.2422 41.533 58.2335 41.4214C58.2205 41.3038 58.1826 41.1772 58.12 41.0413C58.0871 40.9837 58.052 40.923 58.0147 40.8595C57.9732 40.7899 57.9286 40.7226 57.8812 40.6574C57.7905 40.5329 57.7039 40.4327 57.6213 40.3567C57.5345 40.2748 57.4255 40.2 57.2944 40.1321C57.1574 40.0686 56.9946 40.0194 56.8059 39.9845C56.6231 39.9452 56.4138 39.9071 56.1782 39.8701C56.0493 39.8551 55.9072 39.8406 55.752 39.8267C55.6026 39.8085 55.44 39.7908 55.2643 39.7737C54.7164 39.7191 54.2295 39.6609 53.8035 39.5992C53.3792 39.5273 52.9969 39.4383 52.6566 39.3324C52.3206 39.2323 52.0267 39.1153 51.7748 38.9812C51.5245 38.8369 51.2958 38.6723 51.0886 38.4876C50.9872 38.3981 50.8874 38.2985 50.7892 38.1886C50.6969 38.0743 50.6054 37.955 50.5148 37.8305C50.2773 37.5045 50.0897 37.1784 49.952 36.8523C49.8159 36.516 49.7442 36.1871 49.737 35.8658C49.7252 35.2393 49.9431 34.6542 50.3908 34.1104C50.6116 33.8406 50.8969 33.5784 51.2467 33.3237C51.9106 32.8401 52.553 32.5763 53.1741 32.5321C53.3811 32.5174 53.6338 32.5466 53.932 32.6198C54.2302 32.6929 54.5425 32.86 54.8688 33.1213C55.1343 33.3362 55.3857 33.6067 55.6232 33.9327L56.1931 34.7152L54.237 36.14ZM61.8018 34.5326C62.0076 34.9298 62.2555 35.2887 62.5455 35.6092C62.8419 35.9264 63.1836 36.1953 63.5706 36.4161C63.9112 36.6113 64.2789 36.747 64.6736 36.8233C65.0747 36.8963 65.4716 36.8971 65.8642 36.8259C66.2765 36.7609 66.6748 36.6289 67.0589 36.4299C67.6905 36.1026 68.1714 35.6677 68.5014 35.125C68.8249 34.5858 68.9804 33.9931 68.9678 33.3472C68.9623 33.1931 68.9469 33.0359 68.9217 32.8755C68.893 32.7087 68.8562 32.5419 68.8111 32.3753L71.1552 31.1608C71.3966 31.7543 71.5329 32.3362 71.5641 32.9064C71.6017 33.4733 71.5606 34.0315 71.4405 34.5809C71.1882 35.7358 70.6253 36.7377 69.752 37.5867C69.312 38.0128 68.8088 38.3726 68.2424 38.6661C67.6759 38.9596 67.0573 39.1686 66.3867 39.2931C65.7227 39.4141 65.0158 39.4128 64.2662 39.2891C63.6087 39.1838 62.9775 38.9698 62.3727 38.6472C61.7645 38.3182 61.224 37.9127 60.7513 37.4308C60.5084 37.185 60.2799 36.9193 60.0658 36.6338C59.8583 36.3448 59.6685 36.0343 59.4965 35.7022C59.1456 35.0251 58.9128 34.3446 58.798 33.6607C58.6864 32.967 58.6718 32.2932 58.7542 31.6393C58.8521 30.9196 59.0574 30.2557 59.3701 29.6477C59.6794 29.0332 60.0376 28.5131 60.4448 28.0874C60.684 27.8478 60.9432 27.6227 61.2222 27.4121C61.5013 27.2014 61.8003 27.0134 62.1194 26.8481C63.2393 26.2679 64.4086 26.0379 65.6271 26.1581C66.2118 26.2186 66.7748 26.3646 67.316 26.5963C67.8539 26.8214 68.3386 27.1113 68.7701 27.4659C69.2083 27.8335 69.5951 28.2773 69.9306 28.7972L67.5865 30.0117C67.3826 29.7457 67.1449 29.5179 66.8732 29.3283C66.6046 29.1288 66.3319 28.9769 66.0548 28.8726C65.7713 28.7718 65.4753 28.7104 65.1666 28.6886C64.8546 28.6603 64.5384 28.6796 64.2179 28.7465C63.8878 28.8267 63.5697 28.9461 63.2637 29.1047C62.847 29.3206 62.4998 29.583 62.2222 29.8921C61.9412 30.1946 61.7259 30.5043 61.5763 30.8214C61.2426 31.5641 61.1623 32.3656 61.3353 33.2257C61.3746 33.4449 61.4351 33.6654 61.5171 33.8873C61.5956 34.1026 61.6905 34.3177 61.8018 34.5326ZM78.2194 23.9033C78.4282 24.5216 78.4781 25.0931 78.3688 25.6176C78.3211 25.8659 78.2374 26.0993 78.1177 26.3178C78.0049 26.5339 77.8423 26.7398 77.6297 26.9355C77.4263 27.1125 77.1939 27.2607 76.9323 27.38L76.9886 27.5468C77.2387 27.4623 77.5193 27.4565 77.8303 27.5295C78.1275 27.6071 78.3901 27.7545 78.6183 27.9716C78.6765 28.0293 78.7277 28.0894 78.772 28.1519C78.8233 28.2119 78.8711 28.2732 78.9154 28.3356L81.8382 32.8982L79.3891 33.7255L76.1699 28.9728L75.3779 29.2403L77.1485 34.4823L74.6994 35.3096L70.5104 22.9079L74.158 21.6759C74.4915 21.5632 74.8287 21.5074 75.1696 21.5083C75.5151 21.5 75.8457 21.5509 76.1616 21.6609C76.4797 21.7779 76.7656 21.9368 77.0192 22.1375C77.2797 22.3359 77.5149 22.5854 77.7248 22.8861C77.9301 23.196 78.095 23.5351 78.2194 23.9033ZM74.6034 26.9475L75.1766 26.7539C75.3086 26.7093 75.4278 26.6497 75.5342 26.5751C75.6475 26.4981 75.7434 26.4038 75.8218 26.2922C75.9531 26.0853 76.0113 25.8334 75.9962 25.5367C75.984 25.4092 75.9487 25.2586 75.89 25.0849C75.7562 24.6888 75.5499 24.4102 75.271 24.249C74.9897 24.0808 74.6684 24.0578 74.3071 24.1798L73.7339 24.3734L74.6034 26.9475ZM80.8579 26.3842C80.7379 25.6681 80.7367 24.9731 80.8542 24.2991C80.9706 23.6178 81.1852 22.9684 81.4981 22.3509C81.805 21.7418 82.1999 21.1923 82.6829 20.7024C83.1732 20.2113 83.7183 19.8039 84.3184 19.4803C84.6185 19.3185 84.9336 19.1801 85.2639 19.0653C85.6013 18.9493 85.9473 18.8616 86.3016 18.8022C87.0321 18.6798 87.7386 18.6804 88.4211 18.8039C89.1023 18.9203 89.7427 19.1252 90.3421 19.4189C91.0333 19.7715 91.6177 20.1978 92.0956 20.6977C92.5722 21.1903 92.9506 21.6957 93.2308 22.2139C93.3938 22.5212 93.5328 22.8399 93.6476 23.1702C93.7624 23.5004 93.8495 23.8427 93.9089 24.1971C94.0277 24.9059 94.0313 25.6154 93.9198 26.3256C93.8156 27.0346 93.6112 27.7008 93.3067 28.3244C92.9938 28.9419 92.5935 29.5035 92.1057 30.0091C91.6239 30.5062 91.0865 30.916 90.4937 31.2384C89.8743 31.5801 89.2102 31.8104 88.5014 31.9291C87.7782 32.0503 87.0717 32.0498 86.382 31.9274C85.6923 31.805 85.0465 31.5898 84.4446 31.2817C83.8343 30.9676 83.2812 30.5733 82.7853 30.0987C82.2966 29.6229 81.8826 29.0603 81.5432 28.4108C81.3802 28.1035 81.2407 27.7811 81.1246 27.4436C81.0074 27.0989 80.9185 26.7458 80.8579 26.3842ZM83.411 25.9786C83.4849 26.4198 83.6263 26.8422 83.8352 27.2459C84.0442 27.6496 84.2952 27.9942 84.5885 28.2797C84.9094 28.5977 85.2575 28.8553 85.6326 29.0527C86.0065 29.2429 86.3954 29.3673 86.7993 29.426C87.2286 29.5028 87.6602 29.5048 88.0941 29.4321C88.5281 29.3594 88.9324 29.221 89.3072 29.0169C89.6807 28.8056 90.009 28.5461 90.2921 28.2384C90.5763 27.938 90.8129 27.5972 91.0019 27.2161C91.1896 26.8277 91.314 26.4165 91.3751 25.9824C91.4063 25.769 91.4217 25.5508 91.4216 25.3277C91.4214 25.1047 91.4019 24.8775 91.3631 24.646C91.2916 24.2193 91.1532 23.815 90.9479 23.433C90.7414 23.0437 90.4915 22.7064 90.1983 22.4209C89.5769 21.8187 88.8448 21.4432 88.0019 21.2944C87.5811 21.2237 87.1574 21.2241 86.7306 21.2956C86.3835 21.3537 86.0171 21.4746 85.6315 21.6582C85.2446 21.8346 84.8735 22.105 84.5182 22.4694C84.2267 22.771 83.9823 23.1094 83.7849 23.4845C83.5947 23.8584 83.4679 24.2552 83.4044 24.6748C83.3732 24.8882 83.3577 25.1064 83.3579 25.3295C83.3569 25.5453 83.3746 25.7616 83.411 25.9786ZM96.2322 30.6207L95.9939 17.5328L98.5785 17.4858L98.7727 28.154L101.467 28.105L101.511 30.5246L96.2322 30.6207ZM102.775 30.5634L103.765 17.5109L106.343 17.7063L105.536 28.3458L108.223 28.5495L108.04 30.9626L102.775 30.5634ZM115.399 18.8791L118.835 19.6917C119.713 19.8993 120.387 20.33 120.858 20.9839C121.077 21.2995 121.241 21.6736 121.35 22.1062C121.465 22.5405 121.517 22.9935 121.503 23.465C121.488 23.9739 121.413 24.5138 121.278 25.0848L120.423 28.703C120.283 29.2953 120.107 29.8151 119.896 30.2625C119.684 30.7099 119.436 31.092 119.15 31.4087C118.86 31.7396 118.547 31.9971 118.21 32.1811C117.874 32.3579 117.501 32.4694 117.091 32.5155C116.695 32.565 116.272 32.5366 115.822 32.4303L112.386 31.6177L115.399 18.8791ZM115.459 29.8576L115.812 29.9411C116.861 30.1892 117.559 29.5782 117.907 28.1081L118.763 24.4899C119.11 23.0197 118.76 22.1606 117.711 21.9125L117.357 21.829L115.459 29.8576ZM122.87 27.4331C123.147 26.7622 123.514 26.172 123.971 25.6626C124.43 25.1463 124.956 24.7092 125.549 24.3511C126.132 23.997 126.758 23.7401 127.427 23.5804C128.103 23.4235 128.781 23.3667 129.462 23.41C129.802 23.4317 130.142 23.4813 130.483 23.5588C130.831 23.6391 131.171 23.7479 131.503 23.8852C132.187 24.1683 132.786 24.543 133.3 25.0093C133.816 25.4688 134.251 25.9818 134.603 26.5484C135.003 27.2135 135.273 27.8847 135.413 28.5618C135.557 29.2321 135.61 29.8612 135.573 30.4491C135.549 30.7961 135.498 31.1401 135.42 31.481C135.343 31.8219 135.235 32.1584 135.098 32.4905C134.823 33.1546 134.451 33.7583 133.98 34.3017C133.516 34.8478 132.99 35.3047 132.401 35.6724C131.809 36.0304 131.172 36.2947 130.49 36.4652C129.818 36.6317 129.145 36.6947 128.472 36.6541C127.765 36.6159 127.08 36.4595 126.416 36.1848C125.738 35.9046 125.139 35.5299 124.619 35.0608C124.099 34.5917 123.665 34.0671 123.318 33.487C122.967 32.8973 122.706 32.2699 122.537 31.6047C122.375 30.9423 122.321 30.2458 122.378 29.5151C122.402 29.1681 122.454 28.8208 122.535 28.4731C122.618 28.1186 122.729 27.7719 122.87 27.4331ZM125.25 28.4414C125.079 28.8547 124.975 29.288 124.939 29.741C124.902 30.1941 124.932 30.6194 125.03 31.0168C125.134 31.4565 125.293 31.8594 125.506 32.2255C125.723 32.5849 125.987 32.8964 126.298 33.1601C126.622 33.4526 126.987 33.683 127.393 33.8511C127.8 34.0193 128.216 34.116 128.642 34.1414C129.071 34.16 129.487 34.1138 129.89 34.0028C130.29 33.8985 130.671 33.7347 131.033 33.5115C131.398 33.2815 131.722 32.9986 132.003 32.6628C132.143 32.4983 132.271 32.3214 132.389 32.1321C132.507 31.9428 132.611 31.7397 132.701 31.5229C132.866 31.1231 132.963 30.7068 132.991 30.274C133.022 29.8345 132.989 29.416 132.891 29.0186C132.683 28.1786 132.261 27.4724 131.625 26.8998C131.306 26.6169 130.946 26.3927 130.546 26.2274C130.221 26.0929 129.846 26.0013 129.422 25.9528C129 25.8975 128.542 25.9303 128.048 26.0512C127.641 26.1527 127.254 26.3102 126.888 26.5239C126.529 26.7403 126.211 27.0097 125.935 27.3319C125.796 27.4965 125.667 27.6734 125.549 27.8626C125.434 28.0452 125.334 28.2381 125.25 28.4414ZM139.572 38.4736L137.049 41.4776L134.414 39.7597L140.031 27.7964L142.197 29.2079L139.196 35.2221C139.154 35.2998 139.091 35.4164 139.008 35.5718C138.924 35.7273 138.853 35.8562 138.795 35.9585C138.751 36.0261 138.705 36.0967 138.657 36.1704C138.619 36.242 138.578 36.3116 138.534 36.3792C138.486 36.4529 138.441 36.5286 138.399 36.6063C138.347 36.6862 138.295 36.7661 138.243 36.8459L137.925 37.3344L136.66 39.2544L136.844 39.3745C136.924 39.2516 137.011 39.1246 137.106 38.9934C137.19 38.8644 137.276 38.7323 137.364 38.5972C137.544 38.3207 137.731 38.0483 137.923 37.7798C138.116 37.5114 138.308 37.2429 138.5 36.9745C138.669 36.7429 138.862 36.4876 139.078 36.2088C139.299 35.9238 139.487 35.696 139.642 35.5256L144.086 30.4392L145.754 31.5264L142.895 37.6459C142.801 37.8564 142.669 38.1201 142.497 38.4372C142.33 38.7481 142.174 39.0273 142.03 39.2749C141.862 39.5594 141.694 39.8439 141.526 40.1283C141.358 40.4128 141.184 40.6933 141.004 40.9697C140.916 41.1049 140.833 41.239 140.755 41.372C140.667 41.5072 140.583 41.6362 140.503 41.759L140.687 41.8792L142.122 39.6371L142.296 39.3698C142.328 39.3207 142.368 39.2674 142.414 39.2099C142.45 39.1546 142.488 39.0963 142.528 39.0348C142.632 38.8751 142.723 38.742 142.801 38.6354C142.886 38.5328 142.984 38.4087 143.096 38.2631C143.136 38.2017 143.178 38.1453 143.22 38.0941C143.266 38.0366 143.31 37.9823 143.352 37.931L147.643 32.7577L149.809 34.1692L141.132 44.1384L138.496 42.4206L140.235 38.9061C140.311 38.7629 140.4 38.5932 140.501 38.3968C140.607 38.1944 140.713 37.9919 140.819 37.7895C140.928 37.5808 141.03 37.3977 141.124 37.2402C141.284 36.9415 141.445 36.6531 141.609 36.3747C141.773 36.0964 141.942 35.817 142.116 35.5366C142.19 35.4097 142.271 35.2787 142.359 35.1435C142.433 35.0166 142.51 34.8918 142.59 34.7689L142.406 34.6488C142.262 34.8699 142.097 35.1167 141.91 35.3892C141.734 35.6595 141.545 35.93 141.342 36.2005C141.143 36.465 140.945 36.7294 140.746 36.9939C140.552 37.2522 140.352 37.5116 140.147 37.772C140.051 37.893 139.954 38.014 139.858 38.135C139.755 38.252 139.66 38.3649 139.572 38.4736ZM147.524 45.1282L145.382 47.5076L143.461 45.7784L152.217 36.0483L154.466 38.0718L152.839 41.3432C152.703 41.6255 152.546 41.9376 152.366 42.2794C152.192 42.6157 152.012 42.9523 151.828 43.2892C151.648 43.6206 151.484 43.9122 151.336 44.164C151.027 44.7048 150.737 45.203 150.465 45.6587C150.193 46.1144 149.911 46.581 149.619 47.0585C149.475 47.2842 149.334 47.502 149.194 47.7118C149.05 47.9271 148.91 48.137 148.776 48.3414L148.939 48.4886C149.155 48.1604 149.348 47.8647 149.515 47.6014C149.688 47.3327 149.866 47.0585 150.049 46.7789C150.231 46.4992 150.453 46.1708 150.713 45.7936C150.891 45.5194 151.096 45.2153 151.327 44.8811C151.564 44.5415 151.798 44.2098 152.03 43.886C152.267 43.5568 152.484 43.2728 152.679 43.034C152.844 42.8176 153.007 42.6091 153.168 42.4085C153.339 42.2074 153.505 42.0169 153.667 41.837L155.897 39.3595L157.818 41.0887L149.062 50.8188L146.936 48.9057L148.457 45.7021C148.56 45.4786 148.693 45.2042 148.858 44.8788C149.023 44.5533 149.196 44.2067 149.38 43.8387C149.573 43.4702 149.767 43.1121 149.962 42.7643C150.227 42.283 150.502 41.7908 150.787 41.2877C151.077 40.7791 151.371 40.2885 151.668 39.8159C151.806 39.5853 151.945 39.3599 152.084 39.1397C152.223 38.9195 152.357 38.7099 152.487 38.5109L152.324 38.3638C152.059 38.7672 151.781 39.1972 151.488 39.654C151.2 40.1054 150.89 40.5812 150.558 41.0816C150.23 41.5559 149.897 42.0356 149.559 42.5207C149.226 43.0004 148.89 43.4621 148.55 43.9058C148.374 44.1228 148.198 44.3345 148.022 44.5411C147.857 44.7472 147.69 44.9429 147.524 45.1282Z" fill="#2C2C2C"/>
</g>
<defs>
<clipPath id="clip0_66_104">
<rect width="200" height="200" fill="white"/>
</clipPath>
</defs>
</svg>
